<svg width="187" height="60" viewBox="0 0 187 60" fill="none" xmlns="http://www.w3.org/2000/svg">
<path d="M57.5091 48.3764L27.1505 0L8.38394 32.7212C8.11606 33.1882 8.27805 33.784 8.74553 34.0512C9.22608 34.3258 9.38144 34.9452 9.08739 35.4141L1.24012 47.9273C0.8464 48.5551 1.10002 49.3861 1.77723 49.6871C2.31926 49.928 2.95603 49.7433 3.28506 49.2498L6.27115 44.7706C6.49141 44.4402 6.93232 44.3411 7.27281 44.5454C7.62038 44.7539 7.73701 45.2023 7.53511 45.5538L1.8575 55.437C1.50697 56.0472 1.68957 56.8247 2.27507 57.215C2.91549 57.642 3.78325 57.4412 4.17108 56.7763L11.8082 43.6842C11.9727 43.4021 12.3191 43.283 12.6224 43.4043C12.995 43.5534 13.1491 43.9981 12.9485 44.3457L9.95798 49.5294C9.76728 49.8599 9.84653 50.2802 10.1445 50.5186C10.5186 50.8178 11.072 50.708 11.3034 50.2885L14.8096 43.9336L27.1505 22.7073L37.0232 38.9973H25.176L19.4991 48.6232L57.5091 48.3764Z" fill="url(#paint0_linear_4552_17755)"/>
<path d="M7.0572 35.3903C7.51144 36.5022 6.6189 37.5943 5.92552 38.2575C5.12288 39.1832 4.37352 37.8546 4.69143 37.0234C5.00933 36.1922 6.48939 34.0005 7.0572 35.3903Z" fill="#04EDA1"/>
<path d="M1.90702 58.3557C2.25376 59.1672 1.84175 59.1594 1.27576 59.6585C0.618118 60.3525 0.0382373 59.386 0.305937 58.7691C0.573637 58.1522 1.4736 57.3412 1.90702 58.3557Z" fill="#03F59F"/>
<path d="M65.5098 16.7808H76.4698C80.7098 16.7808 83.9898 17.9274 86.3098 20.2208C88.6298 22.4874 89.7898 25.9141 89.7898 30.5008C89.7898 35.0874 88.6298 38.5274 86.3098 40.8208C83.9898 43.0874 80.7098 44.2208 76.4698 44.2208H65.5098V16.7808ZM76.4698 39.8608C79.0831 39.8608 81.0698 39.1141 82.4298 37.6208C83.8164 36.1274 84.5231 33.8874 84.5498 30.9008V30.1008C84.5498 27.1408 83.8564 24.9141 82.4698 23.4208C81.0831 21.9008 79.0831 21.1408 76.4698 21.1408H70.6298V39.8608H76.4698Z" fill="#FCFCFD"/>
<path d="M102.297 44.7008C98.8836 44.7008 96.3503 43.8074 94.697 42.0208C93.0436 40.2341 92.217 37.4608 92.217 33.7008C92.217 29.9408 93.0436 27.1674 94.697 25.3808C96.377 23.5941 98.9103 22.7008 102.297 22.7008C105.39 22.7008 107.697 23.5674 109.217 25.3008C110.764 27.0341 111.537 29.7408 111.537 33.4208V34.8608H97.097C97.177 36.9408 97.617 38.4741 98.417 39.4608C99.2436 40.4208 100.55 40.9008 102.337 40.9008C103.67 40.9008 104.75 40.5674 105.577 39.9008C106.404 39.2075 106.817 38.1941 106.817 36.8608H111.537C111.537 39.4474 110.684 41.4074 108.977 42.7408C107.27 44.0475 105.044 44.7008 102.297 44.7008ZM106.537 31.4608C106.537 28.1541 105.124 26.5008 102.297 26.5008C100.697 26.5008 99.4836 26.9141 98.657 27.7408C97.857 28.5408 97.3636 29.7808 97.177 31.4608H106.537Z" fill="#FCFCFD"/>
<path d="M114.964 15.3008H119.764V44.2208H114.964V15.3008Z" fill="#FCFCFD"/>
<path d="M129.835 44.7008C128.048 44.7008 126.755 44.2075 125.955 43.2208C125.182 42.2075 124.795 40.9541 124.795 39.4608V27.1008H122.235V23.1808H124.875L125.755 17.3008H129.595V23.1808H133.195V27.1008H129.595V38.9808C129.595 40.1808 130.168 40.7808 131.315 40.7808H133.195V44.0608C132.768 44.2208 132.235 44.3674 131.595 44.5008C130.955 44.6341 130.368 44.7008 129.835 44.7008Z" fill="#FCFCFD"/>
<path d="M141.413 44.7008C139.707 44.7008 138.16 44.2875 136.773 43.4608C135.413 42.6075 134.733 41.0474 134.733 38.7808C134.733 36.0874 135.88 34.1941 138.173 33.1008C140.467 32.0075 143.72 31.4608 147.933 31.4608V29.7008C147.933 28.6874 147.667 27.9008 147.133 27.3408C146.627 26.7808 145.693 26.5008 144.333 26.5008C142.92 26.5008 141.92 26.7274 141.333 27.1808C140.747 27.6341 140.453 28.1941 140.453 28.8608V29.4208H135.813C135.787 29.2608 135.773 28.9674 135.773 28.5408C135.773 26.7274 136.547 25.3008 138.093 24.2608C139.667 23.2208 141.747 22.7008 144.333 22.7008C147.133 22.7008 149.227 23.2741 150.613 24.4208C152.027 25.5674 152.733 27.2074 152.733 29.3408V39.3808C152.733 39.8608 152.867 40.2208 153.133 40.4608C153.4 40.6741 153.733 40.7808 154.133 40.7808H155.413V44.0608C154.56 44.4608 153.56 44.6608 152.413 44.6608C151.373 44.6608 150.507 44.4074 149.813 43.9008C149.12 43.3941 148.653 42.7008 148.413 41.8208H148.133C146.56 43.7408 144.32 44.7008 141.413 44.7008ZM142.853 40.8608C144.427 40.8608 145.667 40.4074 146.573 39.5008C147.48 38.5941 147.933 37.3675 147.933 35.8208V34.8608C145.347 34.8608 143.32 35.1141 141.853 35.6208C140.387 36.1008 139.653 36.9941 139.653 38.3008C139.653 40.0075 140.72 40.8608 142.853 40.8608Z" fill="#FCFCFD"/>
<path d="M157.76 16.7808H177.48V21.1408H162.88V28.5808H176.04V32.9408H162.88V44.2208H157.76V16.7808Z" fill="#FCFCFD"/>
<path d="M181.373 15.3008H186.093V20.0208H181.373V15.3008ZM181.373 23.1808H186.173V44.2208H181.373V23.1808Z" fill="#FCFCFD"/>
<defs>
<linearGradient id="paint0_linear_4552_17755" x1="5.99578" y1="28.4187" x2="54.49" y2="25.0293" gradientUnits="userSpaceOnUse">
<stop stop-color="#1AFA9A"/>
<stop offset="0.53125" stop-color="#478EF0"/>
<stop offset="0.990948" stop-color="#9945FD"/>
</linearGradient>
</defs>
</svg>
