<svg width="34" height="34" viewBox="0 0 34 34" fill="none" xmlns="http://www.w3.org/2000/svg">
<path fill-rule="evenodd" clip-rule="evenodd" d="M1 16.9301C1 8.13216 8.13216 1 16.9301 1C25.7281 1 32.8603 8.13216 32.8603 16.9301C32.8603 25.7281 25.7281 32.8603 16.9301 32.8603C8.13216 32.8603 1 25.7281 1 16.9301Z" stroke="url(#paint0_linear_174_8887)" stroke-width="0.5"/>
<path d="M24.035 10.6235C24.0296 10.6131 24.0207 10.605 24.0099 10.6005C22.7614 10.0277 21.4437 9.61919 20.0901 9.38528C20.0778 9.38299 20.0651 9.38464 20.0538 9.38999C20.0425 9.39534 20.0331 9.40412 20.0271 9.41508C19.8477 9.74072 19.6848 10.0752 19.5391 10.4173C18.0799 10.1958 16.5957 10.1958 15.1365 10.4173C14.9898 10.0743 14.8244 9.73977 14.6408 9.41508C14.6345 9.40436 14.6252 9.39578 14.6139 9.39047C14.6027 9.38515 14.5901 9.38334 14.5778 9.38528C13.224 9.61869 11.9063 10.0272 10.6579 10.6006C10.6472 10.6051 10.6382 10.6128 10.6321 10.6227C8.13551 14.351 7.4516 17.9877 7.7871 21.5793C7.78804 21.5881 7.79075 21.5966 7.79505 21.6044C7.79936 21.6121 7.80517 21.6189 7.81215 21.6243C9.26589 22.7007 10.8919 23.5223 12.6208 24.0541C12.633 24.0578 12.646 24.0576 12.6581 24.0536C12.6702 24.0497 12.6807 24.0421 12.6884 24.032C13.0597 23.5267 13.3888 22.9917 13.6721 22.4323C13.676 22.4247 13.6783 22.4162 13.6787 22.4076C13.6791 22.399 13.6777 22.3905 13.6745 22.3825C13.6713 22.3744 13.6665 22.3672 13.6604 22.3612C13.6542 22.3552 13.6469 22.3505 13.6388 22.3476C13.1199 22.149 12.6176 21.9097 12.1365 21.6319C12.1278 21.6267 12.1205 21.6195 12.1152 21.6109C12.1099 21.6022 12.1068 21.5924 12.1062 21.5823C12.1056 21.5722 12.1075 21.5621 12.1117 21.5528C12.116 21.5436 12.1224 21.5356 12.1305 21.5295C12.2314 21.4539 12.3324 21.3752 12.4288 21.2957C12.4374 21.2887 12.4477 21.2842 12.4587 21.2827C12.4697 21.2812 12.4809 21.2828 12.491 21.2874C15.6426 22.7257 19.0547 22.7257 22.169 21.2874C22.1791 21.2825 22.1904 21.2807 22.2016 21.282C22.2128 21.2834 22.2233 21.2879 22.232 21.295C22.3284 21.3744 22.4294 21.4539 22.5311 21.5295C22.5392 21.5356 22.5457 21.5435 22.55 21.5527C22.5543 21.5619 22.5563 21.572 22.5558 21.5821C22.5552 21.5922 22.5522 21.602 22.547 21.6107C22.5418 21.6194 22.5345 21.6267 22.5258 21.6319C22.0458 21.9121 21.543 22.1512 21.0228 22.3468C21.0148 22.3499 21.0074 22.3546 21.0013 22.3607C20.9952 22.3668 20.9904 22.3742 20.9873 22.3822C20.9842 22.3903 20.9829 22.399 20.9834 22.4076C20.9838 22.4162 20.9861 22.4246 20.9901 22.4323C21.2782 22.9886 21.6068 23.5229 21.9731 24.0311C21.9805 24.0415 21.991 24.0493 22.0032 24.0534C22.0153 24.0576 22.0284 24.0577 22.0406 24.054C23.7727 23.524 25.4015 22.7023 26.8571 21.6243C26.8642 21.6192 26.8701 21.6125 26.8744 21.6049C26.8787 21.5973 26.8814 21.5888 26.8821 21.58C27.2838 17.4278 26.2097 13.8209 24.035 10.6235ZM14.1428 19.3924C13.1939 19.3924 12.4121 18.5216 12.4121 17.4522C12.4121 16.3828 13.1788 15.512 14.1428 15.512C15.1144 15.512 15.8886 16.3904 15.8735 17.4522C15.8735 18.5216 15.1068 19.3924 14.1428 19.3924ZM20.5417 19.3924C19.5929 19.3924 18.8111 18.5216 18.8111 17.4522C18.8111 16.3828 19.5777 15.512 20.5417 15.512C21.5133 15.512 22.2876 16.3904 22.2724 17.4522C22.2724 18.5216 21.5133 19.3924 20.5417 19.3924Z" fill="url(#paint1_linear_174_8887)"/>
<defs>
<linearGradient id="paint0_linear_174_8887" x1="-1.09319" y1="32.8603" x2="33.7227" y2="6.33958" gradientUnits="userSpaceOnUse">
<stop stop-color="#1AFA9A"/>
<stop offset="0.53125" stop-color="#478EF0"/>
<stop offset="0.990948" stop-color="#9945FD"/>
</linearGradient>
<linearGradient id="paint1_linear_174_8887" x1="6.44232" y1="24.0567" x2="23.0734" y2="7.42928" gradientUnits="userSpaceOnUse">
<stop stop-color="#1AFA9A"/>
<stop offset="0.53125" stop-color="#478EF0"/>
<stop offset="0.990948" stop-color="#9945FD"/>
</linearGradient>
</defs>
</svg>
