<svg width="192" height="200" viewBox="0 0 192 200" fill="none" xmlns="http://www.w3.org/2000/svg">
<g clip-path="url(#clip0_4556_18095)">
<path d="M191.333 160.949L90.3291 -0.00195312L27.8919 108.863C27.0007 110.417 27.5397 112.399 29.095 113.288C30.6938 114.201 31.2107 116.262 30.2325 117.822L4.12423 159.454C2.8143 161.543 3.65811 164.307 5.91118 165.309C7.71458 166.11 9.83311 165.495 10.9278 163.854L20.8626 148.951C21.5954 147.853 23.0625 147.522 24.1953 148.202C25.3515 148.897 25.7397 150.387 25.0679 151.557L6.17826 184.439C5.01204 186.47 5.61954 189.055 7.56755 190.354C9.69824 191.775 12.5853 191.107 13.8757 188.895L39.2846 145.337C39.8321 144.398 40.9845 144.002 41.9934 144.406C43.2333 144.902 43.7459 146.381 43.0786 147.538L33.1289 164.785C32.4945 165.883 32.7581 167.282 33.7495 168.075C34.9941 169.071 36.8354 168.706 37.6053 167.31L49.2705 146.167L90.3291 75.546L123.176 129.743H83.7597L64.8727 161.769L191.333 160.949Z" fill="url(#paint0_linear_4556_18095)"/>
<path d="M23.4714 117.74C24.9826 121.439 22.0132 125.072 19.7062 127.279C17.0358 130.359 14.5428 125.939 15.6004 123.173C16.6581 120.408 21.5824 113.116 23.4714 117.74Z" fill="#1BFB9B"/>
<path d="M6.34219 194.15C7.4958 196.85 6.12503 196.823 4.24193 198.485C2.05395 200.793 0.124657 197.578 1.0153 195.525C1.90595 193.473 4.90016 190.774 6.34219 194.15Z" fill="#1BFB9B"/>
</g>
<defs>
<linearGradient id="paint0_linear_4556_18095" x1="21.6284" y1="93.6311" x2="181.387" y2="82.4664" gradientUnits="userSpaceOnUse">
<stop stop-color="#1AFA9A"/>
<stop offset="0.53125" stop-color="#478EF0"/>
<stop offset="0.990948" stop-color="#9945FD"/>
</linearGradient>
<clipPath id="clip0_4556_18095">
<rect width="192" height="200" fill="white"/>
</clipPath>
</defs>
</svg>
