<svg width="34" height="34" viewBox="0 0 34 34" fill="none" xmlns="http://www.w3.org/2000/svg">
<path fill-rule="evenodd" clip-rule="evenodd" d="M1 16.9301C1 8.13216 8.13216 1 16.9301 1C25.7281 1 32.8603 8.13216 32.8603 16.9301C32.8603 25.7281 25.7281 32.8603 16.9301 32.8603C8.13216 32.8603 1 25.7281 1 16.9301Z" stroke="url(#paint0_linear_174_8893)" stroke-width="0.5"/>
<g clip-path="url(#clip0_174_8893)">
<path d="M12.6406 11.061C9.37572 11.061 6.729 13.726 6.729 17.0132C6.729 20.3003 9.37591 22.9653 12.6406 22.9653C15.9052 22.9653 18.5521 20.3005 18.5521 17.0132C18.5521 13.7258 15.9056 11.061 12.6406 11.061ZM22.0811 11.4097C20.4486 11.4097 19.1255 13.9191 19.1255 17.0133C19.1255 20.1074 20.4488 22.617 22.0813 22.617C23.7138 22.617 25.0371 20.1076 25.0371 17.0133H25.0369C25.0369 13.9182 23.7137 11.4097 22.0811 11.4097H22.0811ZM26.6501 11.9934C26.0761 11.9934 25.6107 14.241 25.6107 17.0133C25.6107 19.7855 26.0758 22.0331 26.6501 22.0331C27.2243 22.0331 27.6897 19.7849 27.6897 17.0132C27.6897 14.2408 27.2241 11.9934 26.6501 11.9934H26.6501Z" fill="url(#paint1_linear_174_8893)"/>
</g>
<defs>
<linearGradient id="paint0_linear_174_8893" x1="-1.09319" y1="32.8603" x2="33.7227" y2="6.33958" gradientUnits="userSpaceOnUse">
<stop stop-color="#1AFA9A"/>
<stop offset="0.53125" stop-color="#478EF0"/>
<stop offset="0.990948" stop-color="#9945FD"/>
</linearGradient>
<linearGradient id="paint1_linear_174_8893" x1="5.35191" y1="22.9653" x2="18.2838" y2="5.62031" gradientUnits="userSpaceOnUse">
<stop stop-color="#1AFA9A"/>
<stop offset="0.53125" stop-color="#478EF0"/>
<stop offset="0.990948" stop-color="#9945FD"/>
</linearGradient>
<clipPath id="clip0_174_8893">
<rect width="20.9607" height="16.7686" fill="white" transform="translate(6.8689 8.5459)"/>
</clipPath>
</defs>
</svg>
