<svg width="39" height="43" viewBox="0 0 39 43" fill="none" xmlns="http://www.w3.org/2000/svg">
<path d="M33.5068 0.260621C22.0257 7.28186 11.8162 16.6137 5.00993 27.8978C3.27253 30.7636 3.25462 34.8295 4.1681 37.946C4.75918 39.9879 6.26373 42.8717 8.35935 40.4715C16.7598 31.1039 25.2139 22.2199 35.4592 14.5718C38.7548 12.1179 37.2682 -2.08576 33.4531 0.260621H33.5068Z" fill="#FF5856"/>
<path d="M2.37657 16.3275C13.2667 24.5667 24.9986 30.5312 33.2557 41.5108C35.2259 44.1259 37.035 41.1168 37.6081 39.3077C38.6828 35.7792 38.4858 31.9641 37.0708 28.561C31.0705 15.6827 17.6728 6.20763 3.66618 1.99847C-1.49228 0.440181 -0.525063 14.1065 2.39448 16.2917L2.37657 16.3275Z" fill="#FF5856"/>
</svg>
