<svg width="42" height="40" viewBox="0 0 42 40" fill="none" xmlns="http://www.w3.org/2000/svg">
<path d="M34.9118 1.28536C29.3238 7.80526 24.1397 14.6845 19.4269 21.8718C16.9526 18.4151 13.3002 16.0364 9.17652 15.2321C6.87061 14.8214 3.89144 14.8043 2.39344 16.3102C2.12414 16.5498 1.85483 16.8236 1.5687 17.0803C-0.131277 18.7402 -0.972846 21.6494 1.80434 23.3948C3.9756 24.7639 6.02904 25.6366 7.61119 27.3992C9.68146 30.0003 11.3478 32.9094 12.5428 36.0239C14.7477 41.1235 23.6179 41.3117 25.5535 36.6229C30.1822 25.551 35.5514 14.8214 41.6107 4.48542C43.58 1.21691 37.5712 -1.79491 34.9118 1.28536Z" fill="#66A896"/>
</svg>
