<svg width="33" height="34" viewBox="0 0 33 34" fill="none" xmlns="http://www.w3.org/2000/svg">
<path fill-rule="evenodd" clip-rule="evenodd" d="M0.559082 16.9301C0.559082 8.13216 7.69124 1 16.4892 1C25.2872 1 32.4193 8.13216 32.4193 16.9301C32.4193 25.7281 25.2872 32.8603 16.4892 32.8603C7.69124 32.8603 0.559082 25.7281 0.559082 16.9301Z" stroke="url(#paint0_linear_174_8884)" stroke-width="0.5"/>
<path fill-rule="evenodd" clip-rule="evenodd" d="M15.6255 13.6277L15.6591 14.1813L15.0995 14.1135C13.0626 13.8536 11.2832 12.9723 9.7723 11.4922L9.03364 10.7578L8.84339 11.3001C8.44049 12.5091 8.69789 13.7858 9.53727 14.6445C9.98494 15.1191 9.88421 15.1869 9.11199 14.9044C8.84339 14.814 8.60836 14.7462 8.58598 14.7801C8.50764 14.8592 8.77624 15.8874 8.98888 16.2941C9.27986 16.8591 9.87302 17.4127 10.5221 17.7404L11.0705 18.0003L10.4214 18.0116C9.79468 18.0116 9.7723 18.0229 9.83945 18.2601C10.0633 18.9945 10.9474 19.7741 11.9323 20.1131L12.6262 20.3504L12.0218 20.7119C11.1265 21.2317 10.0745 21.5254 9.02245 21.548C8.51883 21.5593 8.10474 21.6045 8.10474 21.6384C8.10474 21.7514 9.47012 22.3841 10.2647 22.6327C12.6486 23.3671 15.48 23.0508 17.6065 21.7966C19.1173 20.904 20.6282 19.1301 21.3333 17.4127C21.7138 16.4975 22.0943 14.8253 22.0943 14.0231C22.0943 13.5034 22.1279 13.4356 22.7546 12.8142C23.124 12.4526 23.4709 12.0571 23.538 11.9442C23.65 11.7295 23.6388 11.7295 23.068 11.9216C22.1167 12.2605 21.9824 12.2153 22.4525 11.7069C22.7994 11.3453 23.2135 10.69 23.2135 10.4979C23.2135 10.464 23.0456 10.5205 22.8554 10.6222C22.6539 10.7352 22.2062 10.9047 21.8705 11.0064L21.2661 11.1984L20.7177 10.8256C20.4156 10.6222 19.9903 10.3962 19.7665 10.3284C19.1957 10.1703 18.3227 10.1929 17.8079 10.3736C16.409 10.8821 15.5248 12.1927 15.6255 13.6277Z" fill="url(#paint1_linear_174_8884)"/>
<defs>
<linearGradient id="paint0_linear_174_8884" x1="-1.53411" y1="32.8603" x2="33.2818" y2="6.33958" gradientUnits="userSpaceOnUse">
<stop stop-color="#1AFA9A"/>
<stop offset="0.53125" stop-color="#478EF0"/>
<stop offset="0.990948" stop-color="#9945FD"/>
</linearGradient>
<linearGradient id="paint1_linear_174_8884" x1="7.08712" y1="23.0227" x2="21.5478" y2="9.69333" gradientUnits="userSpaceOnUse">
<stop stop-color="#1AFA9A"/>
<stop offset="0.53125" stop-color="#478EF0"/>
<stop offset="0.990948" stop-color="#9945FD"/>
</linearGradient>
</defs>
</svg>
